{"title":"Haywire 2011 R5 XViD CAM AUDIO DTRG","uid":7139655,"size":1464570770,"categoryP":"video","categoryS":"movies","magnet":"?xt=urn:btih:9868f78ecffe0d0e6f2db9284e519fff6928c628&amp;dn=Haywire+2011+R5+XViD+CAM+AUDIO+DTRG&amp;tr=udp%3A%2F%2Ftracker.openbittorrent.com%3A80&amp;tr=udp%3A%2F%2Fopen.demonii.com%3A1337&amp;tr=udp%3A%2F%2Ftracker.coppersurfer.tk%3A6969&amp;tr=udp%3A%2F%2Fexodus.desync.com%3A6969","seeders":0,"leechers":0,"uploader":"BLOVES","files":3,"time":1332959931,"description":"Format : AVI\nFormat/Info : Audio Video Interleave\nFile size : 1.35 GiB\nDuration : 1h 28mn\nOverall bit rate : 2 169 Kbps\nWriting application : VirtualDubMod 1.5.10.2 (build 2540/release)\nWriting library : VirtualDubMod build 2540/release\n\nVideo\nID : 0\nFormat : MPEG-4 Visual\nFormat profile : Advanced Simple@L5\nFormat settings, BVOP : 2\nFormat settings, QPel : No\nFormat settings, GMC : No warppoints\nFormat settings, Matrix : Default (H.263)\nMuxing mode : Packed bitstream\nCodec ID : XVID\nCodec ID/Hint : XviD\nDuration : 1h 28mn\nBit rate : 2 031 Kbps\nWidth : 640 pixels\nHeight : 480 pixels\nDisplay aspect ratio : 4:3\nFrame rate : 25.000 fps\nColor space : YUV\nChroma subsampling : 4:2:0\nBit depth : 8 bits\nScan type : Progressive\nCompression mode : Lossy\nBits/(Pixel*Frame) : 0.265\nStream size : 1.26 GiB (94%)\nWriting library : XviD 64\n\nAudio\nID : 1\nFormat : MPEG Audio\nFormat version : Version 1\nFormat profile : Layer 3\nMode : Joint stereo\nMode extension : MS Stereo\nCodec ID : 55\nCodec ID/Hint : MP3\nDuration : 1h 28mn\nBit rate mode : Constant\nBit rate : 128 Kbps\nChannel(s) : 2 channels\nSampling rate : 44.1 KHz\nCompression mode : Lossy\nStream size : 81.4 MiB (6%)\nAlignment : Split accross interleaves\nInterleave, duration : 40 ms (1.00 video frame)\nInterleave, preload duration : 500 ms\n\n\n\n\n\n\n\n &lt;a href=&quot;\nhttp://www.imdb.com/title/tt1506999/&quot; rel=&quot;nofollow&quot; target=&quot;_NEW&quot;&gt;\nhttp://www.imdb.com/title/tt1506999/&lt;/a&gt;\n\n\n\n\n\nStoryline\n\nBeautiful freelance covert operative Mallory Kane is hired out by her handler to various global entities to perform jobs which governments can't authorize and heads of state would rather not know about. After a mission to rescue a hostage in Barcelona, Mallory is quickly dispatched on another mission to Dublin. When the operation goes awry and Mallory finds she has been double crossed, she needs to use all of her skills, tricks and abilities to escape an international manhunt, make it back to the United States, protect her family, and exact revenge on those that have betrayed her\n\n\n\n\n\n\n\nSource Used\n\n\n\nDVD9 R5 .........Thanks\n\n\nINSPiRAL..............Thanks\n\n\n\n\nWorst R5 in along time AR is whacked compared to normal r5s but what the hell cant do nothing bout that\n\n\nFiltered the vid the way i like it but check out the sample provided as remember its cam audio\n\n\n\nEnjoy","torrent":{"xt":"urn:btih:9868f78ecffe0d0e6f2db9284e519fff6928c628","amp;dn":"Haywire+2011+R5+XViD+CAM+AUDIO+DTRG","amp;tr":["udp%3A%2F%2Ftracker.openbittorrent.com%3A80","udp%3A%2F%2Fopen.demonii.com%3A1337","udp%3A%2F%2Ftracker.coppersurfer.tk%3A6969","udp%3A%2F%2Fexodus.desync.com%3A6969"],"infoHash":"9868f78ecffe0d0e6f2db9284e519fff6928c628","infoHashBuffer":{"type":"Buffer","data":[152,104,247,142,207,254,13,14,111,45,185,40,78,81,159,255,105,40,198,40]},"announce":[],"urlList":[]}}